<svg width="128" height="128" viewBox="0 0 128 128" fill="none" xmlns="http://www.w3.org/2000/svg">
<g clip-path="url(#clip0_55_661)">
<path d="M16 64C16 70.3035 17.2416 76.5452 19.6538 82.3688C22.066 88.1924 25.6017 93.4839 30.0589 97.9411C34.5161 102.398 39.8076 105.934 45.6312 108.346C51.4548 110.758 57.6966 112 64 112C70.3035 112 76.5452 110.758 82.3688 108.346C88.1924 105.934 93.4839 102.398 97.9411 97.9411C102.398 93.4839 105.934 88.1924 108.346 82.3688C110.758 76.5452 112 70.3035 112 64C112 57.6966 110.758 51.4548 108.346 45.6312C105.934 39.8076 102.398 34.5161 97.9411 30.0589C93.4839 25.6017 88.1924 22.066 82.3688 19.6538C76.5452 17.2416 70.3035 16 64 16C57.6966 16 51.4548 17.2416 45.6312 19.6538C39.8076 22.066 34.5161 25.6017 30.0589 30.0589C25.6017 34.5161 22.066 39.8076 19.6538 45.6312C17.2416 51.4548 16 57.6966 16 64Z" stroke="#696969" stroke-width="2" stroke-linecap="round" stroke-linejoin="round"/>
<path d="M77.3333 85.6C75.5953 83.8261 73.5208 82.4169 71.2313 81.4549C68.9418 80.4928 66.4834 79.9973 64 79.9973C61.5166 79.9973 59.0582 80.4928 56.7687 81.4549C54.4792 82.4169 52.4047 83.8261 50.6667 85.6" stroke="#696969" stroke-width="2" stroke-linecap="round" stroke-linejoin="round"/>
<path d="M53.3333 49.3333C50.6667 54.6667 40 54.6667 37.3333 49.3333" stroke="#696969" stroke-width="2" stroke-linecap="round" stroke-linejoin="round"/>
<path d="M90.6667 49.3333C88 54.6667 77.3333 54.6667 74.6667 49.3333" stroke="#696969" stroke-width="2" stroke-linecap="round" stroke-linejoin="round"/>
</g>
<defs>
<clipPath id="clip0_55_661">
<rect width="128" height="128" fill="white"/>
</clipPath>
</defs>
</svg>
